<?xml version="1.0" ?><svg id="Layer_3" style="fill:#ececec;enable-background:new 0 0 500 500;" version="1.1" viewBox="0 0 500 500" xml:space="preserve" xmlns="http://www.w3.org/2000/svg" xmlns:xlink="http://www.w3.org/1999/xlink"><g><g><path d="M345.1,307.2v141.6H71.3v-356h131L180,120.1H98.7v301.3h219.1V313L345.1,307.2z"/></g></g><g><g><path d="M345.1,307.2v141.6H71.3v-356h131L180,120.1H98.7v301.3h219.1V313L345.1,307.2z"/></g></g><g><rect height="27.4" width="136.9" x="139.7" y="339.2"/></g><g><polyline points="235.6,311.8 139.7,311.8 139.7,284.4 204.8,284.4  "/></g><g><polyline points="177.4,257 139.7,257 139.7,229.6 165.9,229.6  "/></g><g><path d="M291.8,328.8c-76.2,0-138.1-62-138.1-138.1c0-76.2,62-138.1,138.1-138.1c76.2,0,138.1,62,138.1,138.1   C429.9,266.9,367.9,328.8,291.8,328.8z M291.8,79.9c-61.1,0-110.7,49.7-110.7,110.8c0,61.1,49.7,110.7,110.7,110.7   c61.1,0,110.8-49.7,110.8-110.7C402.5,129.6,352.8,79.9,291.8,79.9z"/></g><g><polygon points="271.2,255.5 204.7,189 224.1,169.6 271.2,216.8 352.4,135.6 371.8,154.9  "/></g></svg>
