<svg class="svg-icon" style="width: 1em; height: 1em;vertical-align: middle;fill: currentColor;overflow: hidden;" viewBox="0 0 1024 1024" version="1.1" xmlns="http://www.w3.org/2000/svg"><path d="M524.6 398.4c-3.2-5.6-11.2-6.4-15.4-1.4l-183.8 244.4c-5 5.8-1.2 14.8 6.4 15.4l322.2 28c7.6 0.6 12.8-7.6 9-14.2l-138.4-272.2z m209.8 129.8c-3.2-5.6-11.2-6.4-15.4-1.4l-49.6 50.2a9.36 9.36 0 0 0-1 10.8l50.8 99c1.6 2.6 4.2 4.4 7.4 4.6l89.8 7.8c7.6 0.6 12.8-7.6 9-14.2l-91-156.8z m21.8-79.4c22.4-0.2 41.8-16.6 46-38.4 5.6-29.6-17.2-56.6-47.4-56.2-22.4 0.2-41.8 16.6-46 38.4-5.6 29.6 17.2 56.6 47.4 56.2z"  /><path d="M910.4 258.6l-131.6-11.4-12.2-134c-2.6-29.8-29-51.8-59-49L113.4 117.8c-29.8 2.6-51.8 29-49.2 58.8l53.6 593c2.6 29.8 29 51.8 59 49l31.4-2.8-3 33.4c-2.6 29.8 19.4 56 49.4 58.6l594.6 51.8c29.8 2.6 56.2-19.4 58.8-49.2l52-593.2c2.4-29.6-19.6-56-49.6-58.6zM175.2 601.4c-7.4 0.6-14-4.8-14.8-12.2l-36-400c-0.6-7.4 4.8-14 12.2-14.6l558.4-50.2c7.4-0.6 14 4.8 14.8 12.2l9.6 105.6L316 206.8c-29.8-2.6-56.2 19.4-58.8 49.2l-29.8 340.6-52.2 4.8z m724.4-271.2l-35 400c-0.6 7.4-7.2 13-14.6 12.4l-37.2-3.2L291.4 694c-7.4-0.6-13-7.2-12.4-14.6l7.6-87.8L314 279.4c0.6-7.4 7.2-13 14.6-12.4l396 34.6 59.4 5.2 103.2 9c7.6 0.4 13.2 7 12.4 14.4z"  /></svg>