<?xml version="1.0" ?><!DOCTYPE svg ><svg enable-background="new 0 0 500 500" style="fill:#ececec;" id="Insurance" version="1.1" viewBox="0 0 500 500"  xml:space="preserve" xmlns="http://www.w3.org/2000/svg" xmlns:xlink="http://www.w3.org/1999/xlink"><g><g><g><rect height="16.306" width="10" x="27.855" y="200.771"/><polygon points="37.855,231.931 27.855,231.931 27.855,488.396 320.771,488.396 320.771,478.396 37.855,478.396    "/><polygon points="384.066,478.396 337.137,478.396 337.137,488.396 394.066,488.396 394.066,255.836 384.066,255.836    "/><path d="M27.856,185.816h10v-41.42h135.107v156.502h75.991V144.396h35.92c2.388,5.538,5.002,10.984,7.856,16.32     c15.079,28.188,37.411,53.368,64.581,72.815l15.34,10.979l15.43-11.044c25.871-18.518,47.414-42.293,62.3-68.757     c11.31-20.106,19.275-41.784,23.673-64.429l5.106-26.283l-24.994-2.892c-27.312-3.16-52.6-16.047-71.206-36.288l-10.309-11.214     l-10.31,11.214c-18.606,20.241-43.895,33.128-71.206,36.288l-24.993,2.892l5.105,26.283c2.262,11.645,5.478,23.047,9.604,34.116     h-31.898h-75.991H27.856V185.816z M292.286,81.039c29.694-3.436,57.188-17.447,77.419-39.454l2.947-3.206l2.947,3.206     c20.229,22.007,47.724,36.019,77.418,39.454l14.268,1.651l-3.046,15.684c-4.194,21.592-11.789,42.262-22.573,61.434     c-14.174,25.197-34.715,47.856-59.404,65.527l-9.609,6.878l-9.52-6.813c-25.929-18.56-47.225-42.558-61.584-69.4     c-9.679-18.094-16.57-37.482-20.483-57.625l-3.047-15.684L292.286,81.039z M238.955,144.396v146.502h-55.991V144.396H238.955z"/><path d="M372.652,189.593c31.741,0,57.564-25.823,57.564-57.564s-25.823-57.565-57.564-57.565s-57.564,25.824-57.564,57.565     S340.911,189.593,372.652,189.593z M372.652,84.463c16.098,0,30.343,8.046,38.953,20.319l-45.746,45.747l-19.025-19.026     l-7.071,7.071l26.097,26.097l50.763-50.763c2.312,5.588,3.595,11.706,3.595,18.12c0,26.227-21.338,47.564-47.564,47.564     c-26.228,0-47.564-21.337-47.564-47.564C325.088,105.801,346.425,84.463,372.652,84.463z"/><path d="M413.004,227.949l6.047,7.965c5.537-4.204,11.072-9.187,16.451-14.81l-7.227-6.912     C423.261,219.435,418.123,224.063,413.004,227.949z"/><path d="M436.192,205.297l7.689,6.394c25.368-30.51,39.667-66.15,40.263-67.652l-9.295-3.69     C474.709,140.702,460.512,176.05,436.192,205.297z"/></g><g><path d="M152.951,159.036H54.035v98.916h98.916V159.036z M142.951,247.952H64.035v-78.916h78.916V247.952z"/><path d="M205.959,458.414h157.372v-58.497H205.959V458.414z M215.959,409.917h137.372v38.497H215.959V409.917z"/><rect height="10" width="12" x="243.955" y="424.166"/><rect height="10" width="12" x="267.955" y="424.166"/><rect height="10" width="12" x="315.955" y="424.166"/><rect height="10" width="12" x="291.955" y="424.166"/><rect height="10" width="44.458" x="59.035" y="272.979"/><rect height="10" width="44.458" x="59.035" y="290.999"/><rect height="10" width="48.811" x="79.088" y="183.797"/><rect height="10" width="48.811" x="79.088" y="203.494"/></g></g></g></svg>
