<svg class="svg-icon" style="width: 1em; height: 1em;vertical-align: middle;fill: currentColor;overflow: hidden;" viewBox="0 0 1024 1024" version="1.1" xmlns="http://www.w3.org/2000/svg"><path d="M915.2 280.4l-165-8-9.6-107.6c-2-22.6-22.2-38.4-45.8-36.6L103 176.8c-23.6 2-40.6 21-38.8 43.4l42.4 471.6c2 22.6 22.4 38.4 45.8 36.6l30-2.4-4.8 91.6c-1.2 25.2 18.4 45.6 44.8 47L882.6 896c26.4 1.2 48.2-17.2 49.6-42.4L960 327c1.2-25-18.6-45.4-44.8-46.6z m-709.8 10.6l-14.2 269.6L156.2 610 124 254v-2c2-10 8.8-18 19.2-18.8l522-42.8c10.4-0.8 19.4 6 21 15.8 0 0.4 0.6 0.4 0.6 0.8 0 0.2 0.6 0.4 0.6 0.8l5.4 61.6-438-21c-26.4-0.8-48.2 17.6-49.4 42.6z m668 473.8l-169.6-199-74.8 68.6-138.4-161.6-245.4 261.4L266 336v-0.8c2-10.8 12.4-18.6 23.8-18l582.4 28c11.6 0.6 20.6 9.4 20.8 20.4 0 0.4 0.6 0.6 0.6 1l-20.2 398.2z"  /><path d="M768 512c35.2 0 64-28.8 64-64s-28.6-64-64-64c-35.2 0-64 28.6-64 64s28.6 64 64 64z"  /></svg>